<svg width="2600" height="1024" viewBox="0 0 2600 1024" fill="none" xmlns="http://www.w3.org/2000/svg">
<g clip-path="url(#clip0_2153_293)">
<rect width="2600" height="1024" fill="#CCDDCC"/>
<path d="M942.799 279H924.854L909.84 233.468H846.852L832.081 279H814.137L867.115 119.698H889.82L942.799 279ZM905.079 218.697L878.346 136.544L851.612 218.697H905.079ZM1073.05 279H1051.81L1005.3 210.763H980.519V279H963.795V119.698H1016.29C1033.78 119.698 1047.33 123.523 1056.93 131.173C1066.54 138.741 1071.34 150.094 1071.34 165.23C1071.34 171.904 1070.16 177.926 1067.8 183.297C1065.44 188.587 1062.22 193.103 1058.16 196.847C1054.09 200.59 1049.2 203.601 1043.51 205.88C1037.89 208.159 1031.75 209.542 1025.07 210.03L1073.05 279ZM1054 165.23C1054 154.407 1050.63 146.513 1043.87 141.549C1037.2 136.503 1028 133.98 1016.29 133.98H980.519V196.48H1016.29C1028 196.48 1037.2 194.039 1043.87 189.156C1050.63 184.192 1054 176.217 1054 165.23ZM1215.75 279H1197.8L1182.79 233.468H1119.8L1105.03 279H1087.09L1140.06 119.698H1162.77L1215.75 279ZM1178.03 218.697L1151.29 136.544L1124.56 218.697H1178.03ZM1338.55 279H1317.8L1253.47 144.234V279H1236.74V119.698H1260.3L1321.71 248.238V119.698H1338.55V279ZM1488.7 279H1470.75L1455.74 233.468H1392.75L1377.98 279H1360.04L1413.01 119.698H1435.72L1488.7 279ZM1450.98 218.697L1424.24 136.544L1397.51 218.697H1450.98ZM1611.5 279H1594.65V146.31L1566.46 228.463H1554.49L1526.42 146.31V279H1509.69V119.698H1531.42L1560.47 202.95L1589.77 119.698H1611.5V279ZM1747.97 279H1646.17V119.698H1747.97V133.98H1662.89V190.987H1725.64V205.27H1662.89V264.718H1747.97V279Z" fill="#3D3D3D"/>
<path d="M1298.39 2574.89C1886.73 2573.74 2362.71 2083.67 2361.52 1480.29C2360.34 876.907 1882.44 388.707 1294.1 389.862C705.759 391.018 229.777 881.09 230.962 1484.47C232.146 2087.85 710.05 2576.05 1298.39 2574.89Z" fill="#2E282A" fill-opacity="0.901961"/>
<path d="M1294.84 767.04C1329.86 766.972 1358.19 737.801 1358.12 701.885C1358.05 665.97 1329.61 636.91 1294.59 636.979C1259.57 637.048 1231.23 666.219 1231.3 702.134C1231.37 738.05 1259.82 767.109 1294.84 767.04Z" fill="#FFC312" fill-opacity="0.866667"/>
<path d="M757.575 997.004C792.595 996.936 820.928 967.765 820.857 931.849C820.787 895.934 792.34 866.874 757.32 866.943C722.3 867.012 693.967 896.183 694.038 932.098C694.108 968.014 722.555 997.073 757.575 997.004Z" fill="#FFC312" fill-opacity="0.866667"/>
<path d="M1833 994.893C1868.02 994.824 1896.36 965.653 1896.28 929.738C1896.21 893.822 1867.77 864.763 1832.75 864.832C1797.73 864.9 1769.4 894.071 1769.47 929.987C1769.54 965.902 1797.98 994.962 1833 994.893Z" fill="#FFC312" fill-opacity="0.866667"/>
<path d="M958.267 932L953.945 896.453L958.242 896.453L960.806 920.965L960.952 922.381L961.221 920.916L965.518 896.453L969.448 896.453L973.77 920.94L974.038 922.381L974.185 920.916L976.748 896.453L981.021 896.453L976.699 932L972.085 932L967.764 906.707L967.52 905.218L967.251 906.731L962.905 932L958.267 932ZM998.11 932.488C996.255 932.488 994.546 932.171 992.983 931.536C991.437 930.901 990.111 930.014 989.004 928.875C987.897 927.736 987.035 926.385 986.416 924.822C985.798 923.26 985.488 921.559 985.488 919.72L985.488 918.694C985.488 916.562 985.83 914.658 986.514 912.981C987.197 911.289 988.109 909.856 989.248 908.685C990.371 907.529 991.649 906.642 993.081 906.023C994.53 905.405 996.011 905.096 997.524 905.096C999.429 905.096 1001.09 905.429 1002.5 906.097C1003.94 906.748 1005.13 907.651 1006.07 908.807C1007.01 909.979 1007.71 911.354 1008.17 912.933C1008.64 914.511 1008.88 916.22 1008.88 918.06L1008.88 920.086L990.005 920.086L990.005 920.257C990.119 921.543 990.371 922.674 990.762 923.65C991.169 924.627 991.722 925.49 992.422 926.238C993.138 927.036 994.001 927.662 995.01 928.118C996.019 928.574 997.134 928.802 998.354 928.802C999.966 928.802 1001.4 928.476 1002.65 927.825C1003.9 927.174 1004.95 926.312 1005.78 925.237L1008.54 927.386C1007.66 928.72 1006.34 929.909 1004.58 930.95C1002.84 931.976 1000.68 932.488 998.11 932.488ZM997.524 908.807C996.613 908.807 995.75 908.978 994.937 909.319C994.123 909.645 993.39 910.125 992.739 910.76C992.088 911.411 991.535 912.208 991.079 913.152C990.64 914.08 990.33 915.154 990.151 916.375L1004.36 916.375L1004.36 916.155C1004.36 915.341 1004.21 914.471 1003.9 913.543C1003.59 912.599 1003.16 911.785 1002.6 911.102C1002.05 910.418 1001.35 909.865 1000.5 909.441C999.673 909.018 998.68 908.807 997.524 908.807ZM1038.86 919.085C1038.86 920.241 1038.77 921.355 1038.59 922.43C1038.43 923.488 1038.18 924.48 1037.86 925.408C1037.42 926.629 1036.84 927.728 1036.12 928.704C1035.42 929.664 1034.58 930.462 1033.58 931.097C1032.87 931.536 1032.08 931.878 1031.22 932.122C1030.37 932.366 1029.45 932.488 1028.46 932.488C1027.32 932.488 1026.28 932.35 1025.33 932.073C1024.4 931.797 1023.57 931.398 1022.82 930.877C1022.46 930.617 1022.12 930.332 1021.79 930.022C1021.47 929.713 1021.16 929.371 1020.86 928.997L1020.64 932L1016.49 932L1016.49 894.5L1021.01 894.5L1021.01 908.416C1021.39 907.944 1021.8 907.521 1022.26 907.146C1022.71 906.756 1023.2 906.422 1023.72 906.146C1024.37 905.804 1025.09 905.543 1025.87 905.364C1026.65 905.185 1027.5 905.096 1028.41 905.096C1029.55 905.096 1030.6 905.25 1031.56 905.56C1032.52 905.869 1033.39 906.3 1034.17 906.854C1034.87 907.374 1035.5 908.009 1036.05 908.758C1036.6 909.49 1037.09 910.312 1037.51 911.224C1037.95 912.249 1038.29 913.388 1038.52 914.642C1038.74 915.879 1038.86 917.189 1038.86 918.572L1038.86 919.085ZM1034.34 918.572C1034.34 917.742 1034.28 916.937 1034.17 916.155C1034.07 915.358 1033.92 914.609 1033.71 913.909C1033.41 913.047 1033.03 912.257 1032.56 911.541C1032.09 910.825 1031.51 910.263 1030.83 909.856C1030.35 909.563 1029.82 909.336 1029.24 909.173C1028.65 909.01 1028 908.929 1027.29 908.929C1026.5 908.929 1025.79 909.035 1025.14 909.246C1024.49 909.441 1023.91 909.718 1023.4 910.076C1022.88 910.451 1022.42 910.89 1022.01 911.395C1021.62 911.883 1021.29 912.42 1021.01 913.006L1021.01 924.554C1021.3 925.14 1021.65 925.685 1022.04 926.189C1022.44 926.678 1022.91 927.109 1023.43 927.483C1023.95 927.858 1024.53 928.151 1025.19 928.362C1025.84 928.558 1026.55 928.655 1027.33 928.655C1028.08 928.655 1028.77 928.566 1029.38 928.387C1030 928.191 1030.56 927.915 1031.04 927.557C1031.7 927.101 1032.24 926.523 1032.68 925.823C1033.12 925.123 1033.47 924.342 1033.73 923.479C1033.94 922.828 1034.1 922.129 1034.19 921.38C1034.29 920.631 1034.34 919.866 1034.34 919.085L1034.34 918.572ZM1088.3 917.498L1081.19 917.498L1081.19 932L1076.7 932L1076.7 896.453L1087.12 896.453C1088.78 896.486 1090.35 896.722 1091.81 897.161C1093.28 897.601 1094.56 898.26 1095.67 899.139C1096.76 900.018 1097.61 901.124 1098.23 902.459C1098.87 903.777 1099.18 905.332 1099.18 907.122C1099.18 908.278 1099.01 909.336 1098.67 910.296C1098.35 911.256 1097.89 912.127 1097.3 912.908C1096.72 913.689 1096.02 914.381 1095.21 914.983C1094.39 915.586 1093.5 916.098 1092.52 916.521L1100.06 931.707L1100.04 932L1095.28 932L1088.3 917.498ZM1081.19 913.787L1087.25 913.787C1088.26 913.771 1089.21 913.616 1090.1 913.323C1091 913.014 1091.79 912.575 1092.47 912.005C1093.14 911.435 1093.67 910.743 1094.06 909.93C1094.45 909.1 1094.64 908.147 1094.64 907.073C1094.64 905.934 1094.46 904.941 1094.08 904.095C1093.71 903.232 1093.19 902.508 1092.52 901.922C1091.85 901.352 1091.05 900.921 1090.13 900.628C1089.22 900.335 1088.21 900.18 1087.12 900.164L1081.19 900.164L1081.19 913.787ZM1118.23 932.488C1116.37 932.488 1114.66 932.171 1113.1 931.536C1111.55 930.901 1110.23 930.014 1109.12 928.875C1108.01 927.736 1107.15 926.385 1106.53 924.822C1105.91 923.26 1105.61 921.559 1105.61 919.72L1105.61 918.694C1105.61 916.562 1105.95 914.658 1106.63 912.981C1107.31 911.289 1108.23 909.856 1109.37 908.685C1110.49 907.529 1111.77 906.642 1113.2 906.023C1114.65 905.405 1116.13 905.096 1117.64 905.096C1119.55 905.096 1121.21 905.429 1122.62 906.097C1124.05 906.748 1125.24 907.651 1126.19 908.807C1127.13 909.979 1127.83 911.354 1128.29 912.933C1128.76 914.511 1128.99 916.22 1128.99 918.06L1128.99 920.086L1110.12 920.086L1110.12 920.257C1110.24 921.543 1110.49 922.674 1110.88 923.65C1111.29 924.627 1111.84 925.49 1112.54 926.238C1113.26 927.036 1114.12 927.662 1115.13 928.118C1116.14 928.574 1117.25 928.802 1118.47 928.802C1120.08 928.802 1121.52 928.476 1122.77 927.825C1124.02 927.174 1125.06 926.312 1125.89 925.237L1128.65 927.386C1127.77 928.72 1126.46 929.909 1124.7 930.95C1122.96 931.976 1120.8 932.488 1118.23 932.488ZM1117.64 908.807C1116.73 908.807 1115.87 908.978 1115.05 909.319C1114.24 909.645 1113.51 910.125 1112.86 910.76C1112.21 911.411 1111.65 912.208 1111.2 913.152C1110.76 914.08 1110.45 915.154 1110.27 916.375L1124.48 916.375L1124.48 916.155C1124.48 915.341 1124.32 914.471 1124.01 913.543C1123.7 912.599 1123.27 911.785 1122.72 911.102C1122.17 910.418 1121.47 909.865 1120.62 909.441C1119.79 909.018 1118.8 908.807 1117.64 908.807ZM1154.14 924.993C1154.14 924.456 1154.03 923.976 1153.82 923.553C1153.61 923.113 1153.25 922.715 1152.75 922.356C1152.24 921.998 1151.58 921.673 1150.75 921.38C1149.92 921.071 1148.88 920.794 1147.65 920.55C1146.13 920.241 1144.75 919.866 1143.5 919.427C1142.26 918.987 1141.2 918.458 1140.32 917.84C1139.43 917.238 1138.74 916.53 1138.25 915.716C1137.76 914.886 1137.51 913.925 1137.51 912.835C1137.51 911.761 1137.77 910.76 1138.27 909.832C1138.78 908.888 1139.48 908.066 1140.4 907.366C1141.31 906.666 1142.39 906.113 1143.64 905.706C1144.91 905.299 1146.3 905.096 1147.82 905.096C1149.44 905.096 1150.91 905.307 1152.21 905.73C1153.51 906.154 1154.62 906.74 1155.53 907.488C1156.44 908.237 1157.14 909.116 1157.63 910.125C1158.14 911.118 1158.39 912.192 1158.39 913.348L1153.87 913.348C1153.87 912.778 1153.73 912.225 1153.43 911.688C1153.14 911.134 1152.73 910.646 1152.21 910.223C1151.69 909.799 1151.06 909.458 1150.31 909.197C1149.58 908.937 1148.75 908.807 1147.82 908.807C1146.86 908.807 1146.01 908.912 1145.28 909.124C1144.56 909.336 1143.97 909.62 1143.5 909.979C1143.01 910.337 1142.64 910.752 1142.4 911.224C1142.15 911.696 1142.03 912.184 1142.03 912.688C1142.03 913.209 1142.13 913.673 1142.32 914.08C1142.52 914.487 1142.86 914.853 1143.35 915.179C1143.82 915.504 1144.46 915.797 1145.25 916.058C1146.07 916.318 1147.09 916.57 1148.33 916.814C1149.96 917.156 1151.41 917.555 1152.7 918.011C1153.99 918.45 1155.07 918.979 1155.95 919.598C1156.83 920.232 1157.49 920.965 1157.95 921.795C1158.42 922.625 1158.66 923.585 1158.66 924.676C1158.66 925.848 1158.39 926.914 1157.85 927.874C1157.33 928.834 1156.6 929.656 1155.65 930.34C1154.71 931.023 1153.58 931.552 1152.26 931.927C1150.94 932.301 1149.5 932.488 1147.94 932.488C1146.15 932.488 1144.55 932.252 1143.15 931.78C1141.75 931.292 1140.57 930.649 1139.61 929.852C1138.64 929.07 1137.89 928.159 1137.37 927.117C1136.86 926.076 1136.61 924.993 1136.61 923.87L1141.13 923.87C1141.19 924.798 1141.44 925.579 1141.86 926.214C1142.3 926.849 1142.85 927.361 1143.5 927.752C1144.13 928.143 1144.84 928.419 1145.62 928.582C1146.4 928.745 1147.17 928.826 1147.94 928.826C1149.14 928.826 1150.19 928.688 1151.09 928.411C1151.98 928.118 1152.68 927.719 1153.19 927.215C1153.5 926.906 1153.73 926.564 1153.9 926.189C1154.06 925.815 1154.14 925.416 1154.14 924.993ZM1165.35 918.548C1165.35 916.644 1165.62 914.878 1166.18 913.25C1166.73 911.606 1167.53 910.182 1168.57 908.978C1169.59 907.773 1170.85 906.829 1172.33 906.146C1173.81 905.446 1175.48 905.096 1177.33 905.096C1179.21 905.096 1180.88 905.446 1182.36 906.146C1183.86 906.829 1185.13 907.773 1186.17 908.978C1187.2 910.182 1187.99 911.606 1188.54 913.25C1189.09 914.878 1189.37 916.644 1189.37 918.548L1189.37 919.085C1189.37 920.989 1189.09 922.755 1188.54 924.383C1187.99 926.01 1187.2 927.426 1186.17 928.631C1185.13 929.835 1183.87 930.779 1182.39 931.463C1180.91 932.146 1179.24 932.488 1177.38 932.488C1175.51 932.488 1173.83 932.146 1172.33 931.463C1170.85 930.779 1169.59 929.835 1168.57 928.631C1167.53 927.426 1166.73 926.01 1166.18 924.383C1165.62 922.755 1165.35 920.989 1165.35 919.085L1165.35 918.548ZM1169.86 919.085C1169.86 920.387 1170.02 921.632 1170.33 922.82C1170.64 923.992 1171.11 925.026 1171.74 925.921C1172.36 926.816 1173.14 927.524 1174.09 928.045C1175.03 928.566 1176.13 928.826 1177.38 928.826C1178.62 928.826 1179.7 928.566 1180.63 928.045C1181.57 927.524 1182.36 926.816 1183 925.921C1183.62 925.026 1184.08 923.992 1184.39 922.82C1184.7 921.632 1184.85 920.387 1184.85 919.085L1184.85 918.548C1184.85 917.262 1184.69 916.033 1184.37 914.861C1184.06 913.673 1183.59 912.632 1182.97 911.736C1182.34 910.841 1181.55 910.133 1180.61 909.612C1179.68 909.075 1178.59 908.807 1177.33 908.807C1176.08 908.807 1174.99 909.075 1174.06 909.612C1173.13 910.133 1172.36 910.841 1171.74 911.736C1171.11 912.632 1170.64 913.673 1170.33 914.861C1170.02 916.033 1169.86 917.262 1169.86 918.548L1169.86 919.085ZM1214.05 932L1213.78 928.362C1212.91 929.664 1211.81 930.682 1210.49 931.414C1209.17 932.13 1207.65 932.488 1205.92 932.488C1204.54 932.488 1203.29 932.277 1202.16 931.854C1201.04 931.414 1200.08 930.739 1199.28 929.827C1198.48 928.916 1197.87 927.76 1197.43 926.36C1197 924.944 1196.79 923.252 1196.79 921.282L1196.79 905.584L1201.31 905.584L1201.31 921.331C1201.31 922.763 1201.42 923.951 1201.65 924.896C1201.88 925.84 1202.22 926.588 1202.68 927.142C1203.13 927.711 1203.68 928.11 1204.34 928.338C1205 928.566 1205.77 928.68 1206.63 928.68C1207.64 928.68 1208.54 928.566 1209.34 928.338C1210.14 928.094 1210.83 927.76 1211.42 927.337C1211.9 926.995 1212.33 926.588 1212.69 926.116C1213.06 925.628 1213.37 925.099 1213.61 924.529L1213.61 905.584L1218.15 905.584L1218.15 932L1214.05 932ZM1243.98 905.096C1244.81 905.096 1245.68 905.153 1246.57 905.267C1247.48 905.381 1248.17 905.535 1248.62 905.73L1248.01 910.149C1247.13 909.954 1246.3 909.816 1245.5 909.734C1244.72 909.637 1243.89 909.588 1243.03 909.588C1241.93 909.588 1240.92 909.726 1240.03 910.003C1239.13 910.263 1238.35 910.654 1237.69 911.175C1237.08 911.631 1236.55 912.192 1236.1 912.859C1235.66 913.51 1235.29 914.243 1235 915.057L1235 932L1230.46 932L1230.46 905.584L1234.76 905.584L1234.95 909.124L1234.98 909.783C1236.05 908.335 1237.34 907.195 1238.83 906.365C1240.35 905.519 1242.06 905.096 1243.98 905.096ZM1267.96 928.826C1268.77 928.826 1269.56 928.696 1270.33 928.436C1271.11 928.175 1271.8 927.809 1272.4 927.337C1273 926.881 1273.48 926.344 1273.84 925.726C1274.22 925.091 1274.41 924.407 1274.43 923.675L1278.7 923.675C1278.68 924.847 1278.38 925.97 1277.77 927.044C1277.19 928.102 1276.4 929.03 1275.41 929.827C1274.41 930.641 1273.27 931.292 1271.99 931.78C1270.7 932.252 1269.36 932.488 1267.96 932.488C1265.96 932.488 1264.21 932.13 1262.71 931.414C1261.21 930.698 1259.97 929.729 1258.97 928.509C1257.97 927.304 1257.21 925.913 1256.7 924.334C1256.2 922.739 1255.95 921.063 1255.95 919.305L1255.95 918.279C1255.95 916.538 1256.2 914.869 1256.7 913.274C1257.21 911.679 1257.97 910.271 1258.97 909.051C1259.97 907.846 1261.21 906.886 1262.71 906.17C1264.21 905.454 1265.96 905.096 1267.96 905.096C1269.52 905.096 1270.95 905.348 1272.26 905.853C1273.57 906.341 1274.71 907.008 1275.67 907.854C1276.62 908.717 1277.36 909.734 1277.9 910.906C1278.43 912.078 1278.7 913.331 1278.7 914.666L1274.43 914.666C1274.41 913.868 1274.23 913.12 1273.89 912.42C1273.57 911.704 1273.12 911.077 1272.55 910.54C1271.98 910.003 1271.3 909.58 1270.5 909.271C1269.72 908.961 1268.87 908.807 1267.96 908.807C1266.56 908.807 1265.38 909.091 1264.42 909.661C1263.47 910.215 1262.71 910.939 1262.12 911.834C1261.54 912.745 1261.11 913.763 1260.85 914.886C1260.61 916.009 1260.49 917.14 1260.49 918.279L1260.49 919.305C1260.49 920.46 1260.61 921.608 1260.85 922.747C1261.11 923.87 1261.54 924.879 1262.12 925.774C1262.69 926.686 1263.45 927.426 1264.39 927.996C1265.35 928.549 1266.54 928.826 1267.96 928.826ZM1298.4 932.488C1296.55 932.488 1294.84 932.171 1293.28 931.536C1291.73 930.901 1290.4 930.014 1289.3 928.875C1288.19 927.736 1287.33 926.385 1286.71 924.822C1286.09 923.26 1285.78 921.559 1285.78 919.72L1285.78 918.694C1285.78 916.562 1286.12 914.658 1286.81 912.981C1287.49 911.289 1288.4 909.856 1289.54 908.685C1290.66 907.529 1291.94 906.642 1293.37 906.023C1294.82 905.405 1296.3 905.096 1297.82 905.096C1299.72 905.096 1301.38 905.429 1302.8 906.097C1304.23 906.748 1305.42 907.651 1306.36 908.807C1307.31 909.979 1308.01 911.354 1308.46 912.933C1308.93 914.511 1309.17 916.22 1309.17 918.06L1309.17 920.086L1290.3 920.086L1290.3 920.257C1290.41 921.543 1290.66 922.674 1291.05 923.65C1291.46 924.627 1292.01 925.49 1292.71 926.238C1293.43 927.036 1294.29 927.662 1295.3 928.118C1296.31 928.574 1297.43 928.802 1298.65 928.802C1300.26 928.802 1301.69 928.476 1302.94 927.825C1304.2 927.174 1305.24 926.312 1306.07 925.237L1308.83 927.386C1307.95 928.72 1306.63 929.909 1304.87 930.95C1303.13 931.976 1300.97 932.488 1298.4 932.488ZM1297.82 908.807C1296.91 908.807 1296.04 908.978 1295.23 909.319C1294.42 909.645 1293.68 910.125 1293.03 910.76C1292.38 911.411 1291.83 912.208 1291.37 913.152C1290.93 914.08 1290.62 915.154 1290.44 916.375L1304.65 916.375L1304.65 916.155C1304.65 915.341 1304.5 914.471 1304.19 913.543C1303.88 912.599 1303.45 911.785 1302.9 911.102C1302.34 910.418 1301.64 909.865 1300.8 909.441C1299.97 909.018 1298.97 908.807 1297.82 908.807ZM1334.32 924.993C1334.32 924.456 1334.21 923.976 1334 923.553C1333.79 923.113 1333.43 922.715 1332.92 922.356C1332.42 921.998 1331.75 921.673 1330.92 921.38C1330.09 921.071 1329.06 920.794 1327.82 920.55C1326.31 920.241 1324.93 919.866 1323.67 919.427C1322.43 918.987 1321.38 918.458 1320.5 917.84C1319.6 917.238 1318.91 916.53 1318.42 915.716C1317.93 914.886 1317.69 913.925 1317.69 912.835C1317.69 911.761 1317.94 910.76 1318.45 909.832C1318.95 908.888 1319.66 908.066 1320.57 907.366C1321.48 906.666 1322.57 906.113 1323.82 905.706C1325.09 905.299 1326.48 905.096 1327.99 905.096C1329.62 905.096 1331.09 905.307 1332.39 905.73C1333.69 906.154 1334.8 906.74 1335.71 907.488C1336.62 908.237 1337.32 909.116 1337.81 910.125C1338.31 911.118 1338.56 912.192 1338.56 913.348L1334.05 913.348C1334.05 912.778 1333.9 912.225 1333.61 911.688C1333.32 911.134 1332.91 910.646 1332.39 910.223C1331.87 909.799 1331.23 909.458 1330.48 909.197C1329.75 908.937 1328.92 908.807 1327.99 908.807C1327.03 908.807 1326.19 908.912 1325.45 909.124C1324.74 909.336 1324.14 909.62 1323.67 909.979C1323.18 910.337 1322.82 910.752 1322.57 911.224C1322.33 911.696 1322.21 912.184 1322.21 912.688C1322.21 913.209 1322.3 913.673 1322.5 914.08C1322.7 914.487 1323.04 914.853 1323.53 915.179C1324 915.504 1324.63 915.797 1325.43 916.058C1326.24 916.318 1327.27 916.57 1328.51 916.814C1330.13 917.156 1331.59 917.555 1332.88 918.011C1334.16 918.45 1335.24 918.979 1336.12 919.598C1337 920.232 1337.67 920.965 1338.12 921.795C1338.6 922.625 1338.83 923.585 1338.83 924.676C1338.83 925.848 1338.56 926.914 1338.03 927.874C1337.51 928.834 1336.77 929.656 1335.83 930.34C1334.89 931.023 1333.75 931.552 1332.44 931.927C1331.12 932.301 1329.68 932.488 1328.12 932.488C1326.32 932.488 1324.73 932.252 1323.33 931.78C1321.93 931.292 1320.75 930.649 1319.79 929.852C1318.81 929.07 1318.06 928.159 1317.54 927.117C1317.04 926.076 1316.79 924.993 1316.79 923.87L1321.3 923.87C1321.37 924.798 1321.61 925.579 1322.04 926.214C1322.48 926.849 1323.02 927.361 1323.67 927.752C1324.31 928.143 1325.01 928.419 1325.8 928.582C1326.58 928.745 1327.35 928.826 1328.12 928.826C1329.32 928.826 1330.37 928.688 1331.26 928.411C1332.16 928.118 1332.86 927.719 1333.36 927.215C1333.67 926.906 1333.91 926.564 1334.07 926.189C1334.24 925.815 1334.32 925.416 1334.32 924.993ZM1376.82 896.453L1398.31 896.453L1398.31 900.384L1389.79 900.384L1389.79 928.094L1398.31 928.094L1398.31 932L1376.82 932L1376.82 928.094L1385.15 928.094L1385.15 900.384L1376.82 900.384L1376.82 896.453ZM1406.85 932L1406.85 905.584L1410.9 905.584L1411.22 909.49C1411.61 908.937 1412.03 908.432 1412.49 907.977C1412.96 907.505 1413.46 907.098 1413.98 906.756C1414.76 906.235 1415.61 905.836 1416.52 905.56C1417.45 905.267 1418.42 905.112 1419.45 905.096C1420.83 905.096 1422.08 905.291 1423.21 905.682C1424.35 906.072 1425.32 906.683 1426.11 907.513C1426.91 908.343 1427.52 909.401 1427.94 910.687C1428.38 911.956 1428.6 913.47 1428.6 915.228L1428.6 932L1424.09 932L1424.09 915.325C1424.09 914.153 1423.96 913.16 1423.7 912.347C1423.44 911.533 1423.05 910.874 1422.55 910.369C1422.03 909.865 1421.39 909.498 1420.64 909.271C1419.91 909.043 1419.07 908.929 1418.11 908.929C1417.28 908.929 1416.5 909.051 1415.79 909.295C1415.07 909.523 1414.41 909.84 1413.81 910.247C1413.32 910.605 1412.86 911.02 1412.44 911.492C1412.03 911.964 1411.68 912.485 1411.37 913.055L1411.37 932L1406.85 932ZM1454.43 924.993C1454.43 924.456 1454.33 923.976 1454.12 923.553C1453.9 923.113 1453.55 922.715 1453.04 922.356C1452.54 921.998 1451.87 921.673 1451.04 921.38C1450.21 921.071 1449.18 920.794 1447.94 920.55C1446.43 920.241 1445.04 919.866 1443.79 919.427C1442.55 918.987 1441.49 918.458 1440.62 917.84C1439.72 917.238 1439.03 916.53 1438.54 915.716C1438.05 914.886 1437.81 913.925 1437.81 912.835C1437.81 911.761 1438.06 910.76 1438.56 909.832C1439.07 908.888 1439.78 908.066 1440.69 907.366C1441.6 906.666 1442.68 906.113 1443.94 905.706C1445.21 905.299 1446.6 905.096 1448.11 905.096C1449.74 905.096 1451.2 905.307 1452.5 905.73C1453.81 906.154 1454.91 906.74 1455.83 907.488C1456.74 908.237 1457.44 909.116 1457.92 910.125C1458.43 911.118 1458.68 912.192 1458.68 913.348L1454.17 913.348C1454.17 912.778 1454.02 912.225 1453.73 911.688C1453.43 911.134 1453.03 910.646 1452.5 910.223C1451.98 909.799 1451.35 909.458 1450.6 909.197C1449.87 908.937 1449.04 908.807 1448.11 908.807C1447.15 908.807 1446.3 908.912 1445.57 909.124C1444.86 909.336 1444.26 909.62 1443.79 909.979C1443.3 910.337 1442.93 910.752 1442.69 911.224C1442.45 911.696 1442.32 912.184 1442.32 912.688C1442.32 913.209 1442.42 913.673 1442.62 914.08C1442.81 914.487 1443.15 914.853 1443.64 915.179C1444.11 915.504 1444.75 915.797 1445.55 916.058C1446.36 916.318 1447.39 916.57 1448.62 916.814C1450.25 917.156 1451.71 917.555 1452.99 918.011C1454.28 918.45 1455.36 918.979 1456.24 919.598C1457.12 920.232 1457.79 920.965 1458.24 921.795C1458.71 922.625 1458.95 923.585 1458.95 924.676C1458.95 925.848 1458.68 926.914 1458.14 927.874C1457.62 928.834 1456.89 929.656 1455.95 930.34C1455 931.023 1453.87 931.552 1452.55 931.927C1451.24 932.301 1449.79 932.488 1448.23 932.488C1446.44 932.488 1444.85 932.252 1443.45 931.78C1442.05 931.292 1440.87 930.649 1439.91 929.852C1438.93 929.07 1438.18 928.159 1437.66 927.117C1437.16 926.076 1436.9 924.993 1436.9 923.87L1441.42 923.87C1441.49 924.798 1441.73 925.579 1442.15 926.214C1442.59 926.849 1443.14 927.361 1443.79 927.752C1444.42 928.143 1445.13 928.419 1445.91 928.582C1446.69 928.745 1447.47 928.826 1448.23 928.826C1449.44 928.826 1450.49 928.688 1451.38 928.411C1452.28 928.118 1452.98 927.719 1453.48 927.215C1453.79 926.906 1454.03 926.564 1454.19 926.189C1454.35 925.815 1454.43 925.416 1454.43 924.993ZM1466.88 942.156L1466.88 905.584L1471.01 905.584L1471.23 908.465C1471.59 908.009 1471.98 907.602 1472.4 907.244C1472.83 906.87 1473.28 906.552 1473.77 906.292C1474.45 905.901 1475.21 905.608 1476.04 905.413C1476.89 905.201 1477.79 905.096 1478.75 905.096C1480.44 905.096 1481.94 905.429 1483.24 906.097C1484.54 906.764 1485.63 907.692 1486.51 908.88C1487.39 910.068 1488.06 911.492 1488.52 913.152C1488.97 914.796 1489.2 916.603 1489.2 918.572L1489.2 919.085C1489.2 920.973 1488.97 922.739 1488.52 924.383C1488.06 926.01 1487.39 927.426 1486.51 928.631C1485.63 929.835 1484.54 930.779 1483.24 931.463C1481.96 932.146 1480.48 932.488 1478.82 932.488C1477.81 932.488 1476.87 932.382 1475.99 932.171C1475.13 931.959 1474.35 931.658 1473.65 931.268C1473.22 931.023 1472.83 930.755 1472.45 930.462C1472.08 930.153 1471.73 929.819 1471.4 929.461L1471.4 942.156L1466.88 942.156ZM1484.68 918.572C1484.68 917.286 1484.54 916.066 1484.24 914.91C1483.97 913.738 1483.54 912.705 1482.95 911.81C1482.35 910.931 1481.59 910.231 1480.68 909.71C1479.77 909.189 1478.68 908.929 1477.41 908.929C1476.71 908.929 1476.06 909.01 1475.45 909.173C1474.87 909.336 1474.34 909.572 1473.87 909.881C1473.35 910.19 1472.88 910.573 1472.48 911.028C1472.07 911.484 1471.71 911.989 1471.4 912.542L1471.4 925.262C1471.68 925.75 1472 926.206 1472.35 926.629C1472.71 927.052 1473.12 927.41 1473.57 927.703C1474.1 928.045 1474.67 928.313 1475.31 928.509C1475.96 928.704 1476.67 928.802 1477.46 928.802C1478.71 928.802 1479.79 928.541 1480.7 928.021C1481.61 927.483 1482.36 926.767 1482.95 925.872C1483.54 924.977 1483.97 923.943 1484.24 922.771C1484.54 921.6 1484.68 920.371 1484.68 919.085L1484.68 918.572ZM1508.61 932.488C1506.75 932.488 1505.04 932.171 1503.48 931.536C1501.94 930.901 1500.61 930.014 1499.5 928.875C1498.4 927.736 1497.53 926.385 1496.91 924.822C1496.3 923.26 1495.99 921.559 1495.99 919.72L1495.99 918.694C1495.99 916.562 1496.33 914.658 1497.01 912.981C1497.7 911.289 1498.61 909.856 1499.75 908.685C1500.87 907.529 1502.15 906.642 1503.58 906.023C1505.03 905.405 1506.51 905.096 1508.02 905.096C1509.93 905.096 1511.59 905.429 1513 906.097C1514.44 906.748 1515.62 907.651 1516.57 908.807C1517.51 909.979 1518.21 911.354 1518.67 912.933C1519.14 914.511 1519.37 916.22 1519.37 918.06L1519.37 920.086L1500.5 920.086L1500.5 920.257C1500.62 921.543 1500.87 922.674 1501.26 923.65C1501.67 924.627 1502.22 925.49 1502.92 926.238C1503.64 927.036 1504.5 927.662 1505.51 928.118C1506.52 928.574 1507.63 928.802 1508.85 928.802C1510.46 928.802 1511.9 928.476 1513.15 927.825C1514.4 927.174 1515.44 926.312 1516.27 925.237L1519.03 927.386C1518.15 928.72 1516.84 929.909 1515.08 930.95C1513.34 931.976 1511.18 932.488 1508.61 932.488ZM1508.02 908.807C1507.11 908.807 1506.25 908.978 1505.43 909.319C1504.62 909.645 1503.89 910.125 1503.24 910.76C1502.59 911.411 1502.03 912.208 1501.58 913.152C1501.14 914.08 1500.83 915.154 1500.65 916.375L1514.86 916.375L1514.86 916.155C1514.86 915.341 1514.7 914.471 1514.39 913.543C1514.09 912.599 1513.65 911.785 1513.1 911.102C1512.55 910.418 1511.85 909.865 1511 909.441C1510.17 909.018 1509.18 908.807 1508.02 908.807ZM1538.22 928.826C1539.04 928.826 1539.83 928.696 1540.59 928.436C1541.37 928.175 1542.06 927.809 1542.67 927.337C1543.27 926.881 1543.75 926.344 1544.11 925.726C1544.48 925.091 1544.68 924.407 1544.69 923.675L1548.96 923.675C1548.95 924.847 1548.64 925.97 1548.04 927.044C1547.45 928.102 1546.66 929.03 1545.67 929.827C1544.68 930.641 1543.54 931.292 1542.25 931.78C1540.97 932.252 1539.62 932.488 1538.22 932.488C1536.22 932.488 1534.47 932.13 1532.97 931.414C1531.48 930.698 1530.23 929.729 1529.24 928.509C1528.23 927.304 1527.47 925.913 1526.97 924.334C1526.46 922.739 1526.21 921.063 1526.21 919.305L1526.21 918.279C1526.21 916.538 1526.46 914.869 1526.97 913.274C1527.47 911.679 1528.23 910.271 1529.24 909.051C1530.23 907.846 1531.48 906.886 1532.97 906.17C1534.47 905.454 1536.22 905.096 1538.22 905.096C1539.79 905.096 1541.22 905.348 1542.52 905.853C1543.84 906.341 1544.98 907.008 1545.94 907.854C1546.88 908.717 1547.62 909.734 1548.16 910.906C1548.7 912.078 1548.96 913.331 1548.96 914.666L1544.69 914.666C1544.68 913.868 1544.5 913.12 1544.16 912.42C1543.83 911.704 1543.38 911.077 1542.81 910.54C1542.24 910.003 1541.56 909.58 1540.76 909.271C1539.98 908.961 1539.13 908.807 1538.22 908.807C1536.82 908.807 1535.64 909.091 1534.68 909.661C1533.74 910.215 1532.97 910.939 1532.39 911.834C1531.8 912.745 1531.38 913.763 1531.12 914.886C1530.87 916.009 1530.75 917.14 1530.75 918.279L1530.75 919.305C1530.75 920.46 1530.87 921.608 1531.12 922.747C1531.38 923.87 1531.8 924.879 1532.39 925.774C1532.96 926.686 1533.71 927.426 1534.66 927.996C1535.62 928.549 1536.81 928.826 1538.22 928.826ZM1567.69 899.188L1567.69 905.584L1577.75 905.584L1577.75 909.075L1567.69 909.075L1567.69 923.431C1567.69 924.456 1567.82 925.302 1568.08 925.97C1568.34 926.637 1568.7 927.166 1569.16 927.557C1569.61 927.964 1570.13 928.248 1570.72 928.411C1571.32 928.574 1571.95 928.655 1572.62 928.655C1573.11 928.655 1573.61 928.631 1574.14 928.582C1574.66 928.517 1575.17 928.444 1575.67 928.362C1576.16 928.281 1576.62 928.2 1577.04 928.118C1577.48 928.021 1577.84 927.939 1578.12 927.874L1578.75 931.072C1578.38 931.3 1577.92 931.504 1577.38 931.683C1576.85 931.845 1576.26 931.984 1575.62 932.098C1574.99 932.228 1574.31 932.326 1573.6 932.391C1572.9 932.456 1572.2 932.488 1571.5 932.488C1570.33 932.488 1569.23 932.326 1568.2 932C1567.19 931.658 1566.32 931.121 1565.57 930.389C1564.82 929.673 1564.22 928.745 1563.78 927.605C1563.36 926.45 1563.15 925.058 1563.15 923.431L1563.15 909.075L1556.22 909.075L1556.22 905.584L1563.15 905.584L1563.15 899.188L1567.69 899.188ZM1585.76 918.548C1585.76 916.644 1586.03 914.878 1586.59 913.25C1587.14 911.606 1587.94 910.182 1588.98 908.978C1590 907.773 1591.26 906.829 1592.74 906.146C1594.22 905.446 1595.89 905.096 1597.74 905.096C1599.62 905.096 1601.29 905.446 1602.77 906.146C1604.27 906.829 1605.54 907.773 1606.58 908.978C1607.61 910.182 1608.4 911.606 1608.95 913.25C1609.5 914.878 1609.78 916.644 1609.78 918.548L1609.78 919.085C1609.78 920.989 1609.5 922.755 1608.95 924.383C1608.4 926.01 1607.61 927.426 1606.58 928.631C1605.54 929.835 1604.28 930.779 1602.8 931.463C1601.32 932.146 1599.65 932.488 1597.79 932.488C1595.92 932.488 1594.24 932.146 1592.74 931.463C1591.26 930.779 1590 929.835 1588.98 928.631C1587.94 927.426 1587.14 926.01 1586.59 924.383C1586.03 922.755 1585.76 920.989 1585.76 919.085L1585.76 918.548ZM1590.27 919.085C1590.27 920.387 1590.43 921.632 1590.74 922.82C1591.05 923.992 1591.52 925.026 1592.15 925.921C1592.77 926.816 1593.55 927.524 1594.5 928.045C1595.44 928.566 1596.54 928.826 1597.79 928.826C1599.03 928.826 1600.11 928.566 1601.04 928.045C1601.98 927.524 1602.77 926.816 1603.41 925.921C1604.03 925.026 1604.49 923.992 1604.8 922.82C1605.11 921.632 1605.26 920.387 1605.26 919.085L1605.26 918.548C1605.26 917.262 1605.1 916.033 1604.78 914.861C1604.47 913.673 1604 912.632 1603.38 911.736C1602.75 910.841 1601.96 910.133 1601.02 909.612C1600.09 909.075 1599 908.807 1597.74 908.807C1596.49 908.807 1595.4 909.075 1594.47 909.612C1593.54 910.133 1592.77 910.841 1592.15 911.736C1591.52 912.632 1591.05 913.673 1590.74 914.861C1590.43 916.033 1590.27 917.262 1590.27 918.548L1590.27 919.085ZM1634.37 905.096C1635.2 905.096 1636.06 905.153 1636.95 905.267C1637.86 905.381 1638.55 905.535 1639 905.73L1638.39 910.149C1637.51 909.954 1636.68 909.816 1635.88 909.734C1635.1 909.637 1634.28 909.588 1633.41 909.588C1632.31 909.588 1631.31 909.726 1630.41 910.003C1629.51 910.263 1628.73 910.654 1628.07 911.175C1627.46 911.631 1626.94 912.192 1626.48 912.859C1626.04 913.51 1625.67 914.243 1625.38 915.057L1625.38 932L1620.84 932L1620.84 905.584L1625.14 905.584L1625.33 909.124L1625.36 909.783C1626.43 908.335 1627.72 907.195 1629.21 906.365C1630.73 905.519 1632.44 905.096 1634.37 905.096Z" fill="#FFC312" fill-opacity="0.866667"/>
</g>
<defs>
<clipPath id="clip0_2153_293">
<rect width="2600" height="1024" fill="white"/>
</clipPath>
</defs>
</svg>
