<svg width="2600" height="1024" viewBox="0 0 2600 1024" fill="none" xmlns="http://www.w3.org/2000/svg">
<g clip-path="url(#clip0_2153_293)">
<rect width="2600" height="1024" fill="#CCDDCC"/>
<path d="M942.799 279H924.854L909.84 233.468H846.852L832.081 279H814.137L867.115 119.698H889.82L942.799 279ZM905.079 218.697L878.346 136.544L851.612 218.697H905.079ZM1073.05 279H1051.81L1005.3 210.763H980.519V279H963.795V119.698H1016.29C1033.78 119.698 1047.33 123.523 1056.93 131.173C1066.54 138.741 1071.34 150.094 1071.34 165.23C1071.34 171.904 1070.16 177.926 1067.8 183.297C1065.44 188.587 1062.22 193.103 1058.16 196.847C1054.09 200.59 1049.2 203.601 1043.51 205.88C1037.89 208.159 1031.75 209.542 1025.07 210.03L1073.05 279ZM1054 165.23C1054 154.407 1050.63 146.513 1043.87 141.549C1037.2 136.503 1028 133.98 1016.29 133.98H980.519V196.48H1016.29C1028 196.48 1037.2 194.039 1043.87 189.156C1050.63 184.192 1054 176.217 1054 165.23ZM1215.75 279H1197.8L1182.79 233.468H1119.8L1105.03 279H1087.09L1140.06 119.698H1162.77L1215.75 279ZM1178.03 218.697L1151.29 136.544L1124.56 218.697H1178.03ZM1338.55 279H1317.8L1253.47 144.234V279H1236.74V119.698H1260.3L1321.71 248.238V119.698H1338.55V279ZM1488.7 279H1470.75L1455.74 233.468H1392.75L1377.98 279H1360.04L1413.01 119.698H1435.72L1488.7 279ZM1450.98 218.697L1424.24 136.544L1397.51 218.697H1450.98ZM1611.5 279H1594.65V146.31L1566.46 228.463H1554.49L1526.42 146.31V279H1509.69V119.698H1531.42L1560.47 202.95L1589.77 119.698H1611.5V279ZM1747.97 279H1646.17V119.698H1747.97V133.98H1662.89V190.987H1725.64V205.27H1662.89V264.718H1747.97V279Z" fill="#3D3D3D"/>
<path d="M1298.39 2574.89C1886.73 2573.74 2362.71 2083.67 2361.52 1480.29C2360.34 876.907 1882.44 388.707 1294.1 389.862C705.759 391.018 229.777 881.09 230.962 1484.47C232.146 2087.85 710.05 2576.05 1298.39 2574.89Z" fill="#2E282A" fill-opacity="0.901961"/>
<path d="M1294.84 767.04C1329.86 766.972 1358.19 737.801 1358.12 701.885C1358.05 665.97 1329.61 636.91 1294.59 636.979C1259.57 637.048 1231.23 666.219 1231.3 702.134C1231.37 738.05 1259.82 767.109 1294.84 767.04Z" fill="#FFC312" fill-opacity="0.866667"/>
<path d="M757.575 997.004C792.595 996.936 820.928 967.765 820.857 931.849C820.787 895.934 792.34 866.874 757.32 866.943C722.3 867.012 693.967 896.183 694.038 932.098C694.108 968.014 722.555 997.073 757.575 997.004Z" fill="#FFC312" fill-opacity="0.866667"/>
<path d="M1833 994.893C1868.02 994.824 1896.36 965.653 1896.28 929.738C1896.21 893.822 1867.77 864.763 1832.75 864.832C1797.73 864.9 1769.4 894.071 1769.47 929.987C1769.54 965.902 1797.98 994.962 1833 994.893Z" fill="#FFC312" fill-opacity="0.866667"/>
<path d="M973.281 949L968.96 913.453L973.257 913.453L975.82 937.965L975.967 939.381L976.235 937.916L980.532 913.453L984.463 913.453L988.784 937.94L989.053 939.381L989.199 937.916L991.763 913.453L996.035 913.453L991.714 949L987.1 949L982.778 923.707L982.534 922.218L982.266 923.731L977.92 949L973.281 949ZM1013.12 949.488C1011.27 949.488 1009.56 949.171 1008 948.536C1006.45 947.901 1005.13 947.014 1004.02 945.875C1002.91 944.736 1002.05 943.385 1001.43 941.822C1000.81 940.26 1000.5 938.559 1000.5 936.72L1000.5 935.694C1000.5 933.562 1000.84 931.658 1001.53 929.981C1002.21 928.289 1003.12 926.856 1004.26 925.685C1005.39 924.529 1006.66 923.642 1008.1 923.023C1009.54 922.405 1011.03 922.096 1012.54 922.096C1014.44 922.096 1016.1 922.429 1017.52 923.097C1018.95 923.748 1020.14 924.651 1021.08 925.807C1022.03 926.979 1022.73 928.354 1023.18 929.933C1023.66 931.511 1023.89 933.22 1023.89 935.06L1023.89 937.086L1005.02 937.086L1005.02 937.257C1005.13 938.543 1005.39 939.674 1005.78 940.65C1006.18 941.627 1006.74 942.49 1007.44 943.238C1008.15 944.036 1009.02 944.662 1010.02 945.118C1011.03 945.574 1012.15 945.802 1013.37 945.802C1014.98 945.802 1016.41 945.476 1017.67 944.825C1018.92 944.174 1019.96 943.312 1020.79 942.237L1023.55 944.386C1022.67 945.72 1021.35 946.909 1019.59 947.95C1017.85 948.976 1015.7 949.488 1013.12 949.488ZM1012.54 925.807C1011.63 925.807 1010.76 925.978 1009.95 926.319C1009.14 926.645 1008.4 927.125 1007.75 927.76C1007.1 928.411 1006.55 929.208 1006.09 930.152C1005.65 931.08 1005.35 932.154 1005.17 933.375L1019.37 933.375L1019.37 933.155C1019.37 932.341 1019.22 931.471 1018.91 930.543C1018.6 929.599 1018.17 928.785 1017.62 928.102C1017.06 927.418 1016.36 926.865 1015.52 926.441C1014.69 926.018 1013.69 925.807 1012.54 925.807ZM1053.87 936.085C1053.87 937.241 1053.78 938.355 1053.6 939.43C1053.44 940.488 1053.2 941.48 1052.87 942.408C1052.43 943.629 1051.85 944.728 1051.14 945.704C1050.44 946.664 1049.59 947.462 1048.6 948.097C1047.88 948.536 1047.09 948.878 1046.23 949.122C1045.38 949.366 1044.46 949.488 1043.47 949.488C1042.33 949.488 1041.29 949.35 1040.35 949.073C1039.42 948.797 1038.58 948.398 1037.83 947.877C1037.47 947.617 1037.13 947.332 1036.81 947.022C1036.48 946.713 1036.17 946.371 1035.88 945.997L1035.66 949L1031.51 949L1031.51 911.5L1036.03 911.5L1036.03 925.416C1036.4 924.944 1036.81 924.521 1037.27 924.146C1037.73 923.756 1038.21 923.422 1038.74 923.146C1039.39 922.804 1040.1 922.543 1040.88 922.364C1041.67 922.185 1042.51 922.096 1043.42 922.096C1044.56 922.096 1045.61 922.25 1046.57 922.56C1047.53 922.869 1048.4 923.3 1049.18 923.854C1049.88 924.374 1050.51 925.009 1051.06 925.758C1051.62 926.49 1052.11 927.312 1052.53 928.224C1052.97 929.249 1053.3 930.388 1053.53 931.642C1053.76 932.879 1053.87 934.189 1053.87 935.572L1053.87 936.085ZM1049.36 935.572C1049.36 934.742 1049.3 933.937 1049.18 933.155C1049.09 932.358 1048.93 931.609 1048.72 930.909C1048.43 930.047 1048.05 929.257 1047.57 928.541C1047.1 927.825 1046.52 927.263 1045.84 926.856C1045.37 926.563 1044.84 926.336 1044.25 926.173C1043.67 926.01 1043.02 925.929 1042.3 925.929C1041.52 925.929 1040.8 926.035 1040.15 926.246C1039.5 926.441 1038.92 926.718 1038.42 927.076C1037.9 927.451 1037.43 927.89 1037.03 928.395C1036.64 928.883 1036.3 929.42 1036.03 930.006L1036.03 941.554C1036.32 942.14 1036.66 942.685 1037.05 943.189C1037.46 943.678 1037.92 944.109 1038.44 944.483C1038.96 944.858 1039.55 945.151 1040.2 945.362C1040.85 945.558 1041.57 945.655 1042.35 945.655C1043.1 945.655 1043.78 945.566 1044.4 945.387C1045.02 945.191 1045.57 944.915 1046.06 944.557C1046.71 944.101 1047.26 943.523 1047.7 942.823C1048.13 942.123 1048.48 941.342 1048.75 940.479C1048.96 939.828 1049.11 939.129 1049.21 938.38C1049.31 937.631 1049.36 936.866 1049.36 936.085L1049.36 935.572ZM1103.31 934.498L1096.21 934.498L1096.21 949L1091.71 949L1091.71 913.453L1102.14 913.453C1103.8 913.486 1105.36 913.722 1106.83 914.161C1108.29 914.601 1109.58 915.26 1110.68 916.139C1111.77 917.018 1112.63 918.124 1113.25 919.459C1113.88 920.777 1114.2 922.332 1114.2 924.122C1114.2 925.278 1114.03 926.336 1113.69 927.296C1113.36 928.256 1112.91 929.127 1112.32 929.908C1111.73 930.689 1111.03 931.381 1110.22 931.983C1109.41 932.586 1108.51 933.098 1107.53 933.521L1115.08 948.707L1115.05 949L1110.29 949L1103.31 934.498ZM1096.21 930.787L1102.26 930.787C1103.27 930.771 1104.22 930.616 1105.12 930.323C1106.01 930.014 1106.8 929.575 1107.49 929.005C1108.15 928.435 1108.68 927.743 1109.07 926.93C1109.46 926.1 1109.66 925.147 1109.66 924.073C1109.66 922.934 1109.47 921.941 1109.1 921.095C1108.72 920.232 1108.2 919.508 1107.53 918.922C1106.87 918.352 1106.07 917.921 1105.14 917.628C1104.23 917.335 1103.23 917.18 1102.14 917.164L1096.21 917.164L1096.21 930.787ZM1133.24 949.488C1131.39 949.488 1129.68 949.171 1128.12 948.536C1126.57 947.901 1125.24 947.014 1124.14 945.875C1123.03 944.736 1122.17 943.385 1121.55 941.822C1120.93 940.26 1120.62 938.559 1120.62 936.72L1120.62 935.694C1120.62 933.562 1120.96 931.658 1121.65 929.981C1122.33 928.289 1123.24 926.856 1124.38 925.685C1125.5 924.529 1126.78 923.642 1128.21 923.023C1129.66 922.405 1131.14 922.096 1132.66 922.096C1134.56 922.096 1136.22 922.429 1137.64 923.097C1139.07 923.748 1140.26 924.651 1141.2 925.807C1142.15 926.979 1142.85 928.354 1143.3 929.933C1143.77 931.511 1144.01 933.22 1144.01 935.06L1144.01 937.086L1125.14 937.086L1125.14 937.257C1125.25 938.543 1125.5 939.674 1125.89 940.65C1126.3 941.627 1126.85 942.49 1127.55 943.238C1128.27 944.036 1129.13 944.662 1130.14 945.118C1131.15 945.574 1132.27 945.802 1133.49 945.802C1135.1 945.802 1136.53 945.476 1137.78 944.825C1139.04 944.174 1140.08 943.312 1140.91 942.237L1143.67 944.386C1142.79 945.72 1141.47 946.909 1139.71 947.95C1137.97 948.976 1135.81 949.488 1133.24 949.488ZM1132.66 925.807C1131.74 925.807 1130.88 925.978 1130.07 926.319C1129.25 926.645 1128.52 927.125 1127.87 927.76C1127.22 928.411 1126.67 929.208 1126.21 930.152C1125.77 931.08 1125.46 932.154 1125.28 933.375L1139.49 933.375L1139.49 933.155C1139.49 932.341 1139.34 931.471 1139.03 930.543C1138.72 929.599 1138.29 928.785 1137.73 928.102C1137.18 927.418 1136.48 926.865 1135.63 926.441C1134.8 926.018 1133.81 925.807 1132.66 925.807ZM1169.16 941.993C1169.16 941.456 1169.05 940.976 1168.84 940.553C1168.63 940.113 1168.27 939.715 1167.76 939.356C1167.26 938.998 1166.59 938.673 1165.76 938.38C1164.93 938.071 1163.9 937.794 1162.66 937.55C1161.15 937.241 1159.76 936.866 1158.51 936.427C1157.27 935.987 1156.22 935.458 1155.34 934.84C1154.44 934.238 1153.75 933.53 1153.26 932.716C1152.77 931.886 1152.53 930.925 1152.53 929.835C1152.53 928.761 1152.78 927.76 1153.29 926.832C1153.79 925.888 1154.5 925.066 1155.41 924.366C1156.32 923.666 1157.4 923.113 1158.66 922.706C1159.93 922.299 1161.32 922.096 1162.83 922.096C1164.46 922.096 1165.92 922.307 1167.23 922.73C1168.53 923.154 1169.64 923.74 1170.55 924.488C1171.46 925.237 1172.16 926.116 1172.65 927.125C1173.15 928.118 1173.4 929.192 1173.4 930.348L1168.89 930.348C1168.89 929.778 1168.74 929.225 1168.45 928.688C1168.15 928.134 1167.75 927.646 1167.23 927.223C1166.71 926.799 1166.07 926.458 1165.32 926.197C1164.59 925.937 1163.76 925.807 1162.83 925.807C1161.87 925.807 1161.03 925.912 1160.29 926.124C1159.58 926.336 1158.98 926.62 1158.51 926.979C1158.02 927.337 1157.66 927.752 1157.41 928.224C1157.17 928.696 1157.05 929.184 1157.05 929.688C1157.05 930.209 1157.14 930.673 1157.34 931.08C1157.53 931.487 1157.88 931.853 1158.36 932.179C1158.84 932.504 1159.47 932.797 1160.27 933.058C1161.08 933.318 1162.11 933.57 1163.34 933.814C1164.97 934.156 1166.43 934.555 1167.71 935.011C1169 935.45 1170.08 935.979 1170.96 936.598C1171.84 937.232 1172.51 937.965 1172.96 938.795C1173.44 939.625 1173.67 940.585 1173.67 941.676C1173.67 942.848 1173.4 943.914 1172.87 944.874C1172.35 945.834 1171.61 946.656 1170.67 947.34C1169.72 948.023 1168.59 948.552 1167.28 948.927C1165.96 949.301 1164.52 949.488 1162.95 949.488C1161.16 949.488 1159.57 949.252 1158.17 948.78C1156.77 948.292 1155.59 947.649 1154.63 946.852C1153.65 946.07 1152.9 945.159 1152.38 944.117C1151.88 943.076 1151.63 941.993 1151.63 940.87L1156.14 940.87C1156.21 941.798 1156.45 942.579 1156.87 943.214C1157.31 943.849 1157.86 944.361 1158.51 944.752C1159.15 945.143 1159.85 945.419 1160.63 945.582C1161.42 945.745 1162.19 945.826 1162.95 945.826C1164.16 945.826 1165.21 945.688 1166.1 945.411C1167 945.118 1167.7 944.719 1168.2 944.215C1168.51 943.906 1168.75 943.564 1168.91 943.189C1169.07 942.815 1169.16 942.416 1169.16 941.993ZM1180.36 935.548C1180.36 933.644 1180.64 931.878 1181.19 930.25C1181.74 928.606 1182.54 927.182 1183.58 925.978C1184.61 924.773 1185.86 923.829 1187.34 923.146C1188.82 922.446 1190.49 922.096 1192.35 922.096C1194.22 922.096 1195.9 922.446 1197.38 923.146C1198.88 923.829 1200.14 924.773 1201.19 925.978C1202.21 927.182 1203 928.606 1203.55 930.25C1204.11 931.878 1204.38 933.644 1204.38 935.548L1204.38 936.085C1204.38 937.989 1204.11 939.755 1203.55 941.383C1203 943.01 1202.21 944.426 1201.19 945.631C1200.14 946.835 1198.88 947.779 1197.4 948.463C1195.92 949.146 1194.25 949.488 1192.4 949.488C1190.53 949.488 1188.84 949.146 1187.34 948.463C1185.86 947.779 1184.61 946.835 1183.58 945.631C1182.54 944.426 1181.74 943.01 1181.19 941.383C1180.64 939.755 1180.36 937.989 1180.36 936.085L1180.36 935.548ZM1184.88 936.085C1184.88 937.387 1185.03 938.632 1185.34 939.82C1185.65 940.992 1186.12 942.026 1186.76 942.921C1187.38 943.816 1188.16 944.524 1189.1 945.045C1190.05 945.566 1191.14 945.826 1192.4 945.826C1193.63 945.826 1194.72 945.566 1195.64 945.045C1196.59 944.524 1197.38 943.816 1198.01 942.921C1198.63 942.026 1199.1 940.992 1199.4 939.82C1199.71 938.632 1199.87 937.387 1199.87 936.085L1199.87 935.548C1199.87 934.262 1199.71 933.033 1199.38 931.861C1199.07 930.673 1198.61 929.632 1197.99 928.736C1197.35 927.841 1196.56 927.133 1195.62 926.612C1194.69 926.075 1193.6 925.807 1192.35 925.807C1191.1 925.807 1190 926.075 1189.08 926.612C1188.15 927.133 1187.38 927.841 1186.76 928.736C1186.12 929.632 1185.65 930.673 1185.34 931.861C1185.03 933.033 1184.88 934.262 1184.88 935.548L1184.88 936.085ZM1229.07 949L1228.8 945.362C1227.92 946.664 1226.82 947.682 1225.5 948.414C1224.18 949.13 1222.66 949.488 1220.94 949.488C1219.55 949.488 1218.3 949.277 1217.18 948.854C1216.05 948.414 1215.09 947.739 1214.3 946.827C1213.5 945.916 1212.88 944.76 1212.44 943.36C1212.02 941.944 1211.81 940.252 1211.81 938.282L1211.81 922.584L1216.32 922.584L1216.32 938.331C1216.32 939.763 1216.44 940.951 1216.67 941.896C1216.89 942.84 1217.23 943.588 1217.69 944.142C1218.15 944.711 1218.7 945.11 1219.35 945.338C1220.02 945.566 1220.78 945.68 1221.65 945.68C1222.65 945.68 1223.56 945.566 1224.36 945.338C1225.15 945.094 1225.84 944.76 1226.43 944.337C1226.92 943.995 1227.34 943.588 1227.7 943.116C1228.07 942.628 1228.38 942.099 1228.63 941.529L1228.63 922.584L1233.17 922.584L1233.17 949L1229.07 949ZM1259 922.096C1259.83 922.096 1260.69 922.153 1261.59 922.267C1262.5 922.381 1263.18 922.535 1263.64 922.73L1263.03 927.149C1262.15 926.954 1261.31 926.816 1260.51 926.734C1259.73 926.637 1258.91 926.588 1258.05 926.588C1256.94 926.588 1255.94 926.726 1255.04 927.003C1254.15 927.263 1253.37 927.654 1252.7 928.175C1252.1 928.631 1251.57 929.192 1251.11 929.859C1250.67 930.51 1250.31 931.243 1250.01 932.057L1250.01 949L1245.47 949L1245.47 922.584L1249.77 922.584L1249.97 926.124L1249.99 926.783C1251.06 925.335 1252.35 924.195 1253.85 923.365C1255.36 922.519 1257.08 922.096 1259 922.096ZM1282.97 945.826C1283.79 945.826 1284.58 945.696 1285.34 945.436C1286.12 945.175 1286.81 944.809 1287.42 944.337C1288.02 943.881 1288.5 943.344 1288.86 942.726C1289.23 942.091 1289.43 941.407 1289.44 940.675L1293.72 940.675C1293.7 941.847 1293.39 942.97 1292.79 944.044C1292.2 945.102 1291.41 946.03 1290.42 946.827C1289.43 947.641 1288.29 948.292 1287 948.78C1285.72 949.252 1284.37 949.488 1282.97 949.488C1280.97 949.488 1279.22 949.13 1277.72 948.414C1276.23 947.698 1274.98 946.729 1273.99 945.509C1272.98 944.304 1272.22 942.913 1271.72 941.334C1271.21 939.739 1270.96 938.063 1270.96 936.305L1270.96 935.279C1270.96 933.538 1271.21 931.869 1271.72 930.274C1272.22 928.679 1272.98 927.271 1273.99 926.051C1274.98 924.846 1276.23 923.886 1277.72 923.17C1279.22 922.454 1280.97 922.096 1282.97 922.096C1284.54 922.096 1285.97 922.348 1287.27 922.853C1288.59 923.341 1289.73 924.008 1290.69 924.854C1291.63 925.717 1292.37 926.734 1292.91 927.906C1293.45 929.078 1293.72 930.331 1293.72 931.666L1289.44 931.666C1289.43 930.868 1289.25 930.12 1288.91 929.42C1288.58 928.704 1288.13 928.077 1287.56 927.54C1286.99 927.003 1286.31 926.58 1285.51 926.271C1284.73 925.961 1283.89 925.807 1282.97 925.807C1281.57 925.807 1280.39 926.091 1279.43 926.661C1278.49 927.215 1277.72 927.939 1277.14 928.834C1276.55 929.745 1276.13 930.763 1275.87 931.886C1275.62 933.009 1275.5 934.14 1275.5 935.279L1275.5 936.305C1275.5 937.46 1275.62 938.608 1275.87 939.747C1276.13 940.87 1276.55 941.879 1277.14 942.774C1277.71 943.686 1278.47 944.426 1279.41 944.996C1280.37 945.549 1281.56 945.826 1282.97 945.826ZM1313.42 949.488C1311.56 949.488 1309.85 949.171 1308.29 948.536C1306.74 947.901 1305.42 947.014 1304.31 945.875C1303.2 944.736 1302.34 943.385 1301.72 941.822C1301.11 940.26 1300.8 938.559 1300.8 936.72L1300.8 935.694C1300.8 933.562 1301.14 931.658 1301.82 929.981C1302.5 928.289 1303.42 926.856 1304.56 925.685C1305.68 924.529 1306.96 923.642 1308.39 923.023C1309.84 922.405 1311.32 922.096 1312.83 922.096C1314.74 922.096 1316.4 922.429 1317.81 923.097C1319.24 923.748 1320.43 924.651 1321.38 925.807C1322.32 926.979 1323.02 928.354 1323.48 929.933C1323.95 931.511 1324.18 933.22 1324.18 935.06L1324.18 937.086L1305.31 937.086L1305.31 937.257C1305.43 938.543 1305.68 939.674 1306.07 940.65C1306.48 941.627 1307.03 942.49 1307.73 943.238C1308.45 944.036 1309.31 944.662 1310.32 945.118C1311.33 945.574 1312.44 945.802 1313.66 945.802C1315.27 945.802 1316.71 945.476 1317.96 944.825C1319.21 944.174 1320.25 943.312 1321.08 942.237L1323.84 944.386C1322.96 945.72 1321.65 946.909 1319.89 947.95C1318.15 948.976 1315.99 949.488 1313.42 949.488ZM1312.83 925.807C1311.92 925.807 1311.06 925.978 1310.24 926.319C1309.43 926.645 1308.7 927.125 1308.05 927.76C1307.4 928.411 1306.84 929.208 1306.39 930.152C1305.95 931.08 1305.64 932.154 1305.46 933.375L1319.67 933.375L1319.67 933.155C1319.67 932.341 1319.51 931.471 1319.2 930.543C1318.89 929.599 1318.46 928.785 1317.91 928.102C1317.36 927.418 1316.66 926.865 1315.81 926.441C1314.98 926.018 1313.99 925.807 1312.83 925.807ZM1361.81 913.453L1383.29 913.453L1383.29 917.384L1374.77 917.384L1374.77 945.094L1383.29 945.094L1383.29 949L1361.81 949L1361.81 945.094L1370.13 945.094L1370.13 917.384L1361.81 917.384L1361.81 913.453ZM1391.84 949L1391.84 922.584L1395.89 922.584L1396.21 926.49C1396.6 925.937 1397.02 925.432 1397.48 924.977C1397.95 924.505 1398.44 924.098 1398.96 923.756C1399.75 923.235 1400.59 922.836 1401.5 922.56C1402.43 922.267 1403.41 922.112 1404.43 922.096C1405.82 922.096 1407.07 922.291 1408.19 922.682C1409.33 923.072 1410.3 923.683 1411.1 924.513C1411.9 925.343 1412.51 926.401 1412.93 927.687C1413.37 928.956 1413.59 930.47 1413.59 932.228L1413.59 949L1409.07 949L1409.07 932.325C1409.07 931.153 1408.94 930.16 1408.68 929.347C1408.42 928.533 1408.04 927.874 1407.53 927.369C1407.01 926.865 1406.38 926.498 1405.63 926.271C1404.9 926.043 1404.05 925.929 1403.09 925.929C1402.26 925.929 1401.49 926.051 1400.77 926.295C1400.06 926.523 1399.4 926.84 1398.79 927.247C1398.31 927.605 1397.85 928.02 1397.43 928.492C1397.02 928.964 1396.66 929.485 1396.35 930.055L1396.35 949L1391.84 949ZM1439.42 941.993C1439.42 941.456 1439.31 940.976 1439.1 940.553C1438.89 940.113 1438.53 939.715 1438.03 939.356C1437.52 938.998 1436.86 938.673 1436.03 938.38C1435.2 938.071 1434.16 937.794 1432.92 937.55C1431.41 937.241 1430.03 936.866 1428.77 936.427C1427.54 935.987 1426.48 935.458 1425.6 934.84C1424.71 934.238 1424.01 933.53 1423.53 932.716C1423.04 931.886 1422.79 930.925 1422.79 929.835C1422.79 928.761 1423.05 927.76 1423.55 926.832C1424.05 925.888 1424.76 925.066 1425.67 924.366C1426.59 923.666 1427.67 923.113 1428.92 922.706C1430.19 922.299 1431.58 922.096 1433.1 922.096C1434.72 922.096 1436.19 922.307 1437.49 922.73C1438.79 923.154 1439.9 923.74 1440.81 924.488C1441.72 925.237 1442.42 926.116 1442.91 927.125C1443.41 928.118 1443.67 929.192 1443.67 930.348L1439.15 930.348C1439.15 929.778 1439 929.225 1438.71 928.688C1438.42 928.134 1438.01 927.646 1437.49 927.223C1436.97 926.799 1436.33 926.458 1435.59 926.197C1434.85 925.937 1434.02 925.807 1433.1 925.807C1432.14 925.807 1431.29 925.912 1430.56 926.124C1429.84 926.336 1429.25 926.62 1428.77 926.979C1428.29 927.337 1427.92 927.752 1427.68 928.224C1427.43 928.696 1427.31 929.184 1427.31 929.688C1427.31 930.209 1427.41 930.673 1427.6 931.08C1427.8 931.487 1428.14 931.853 1428.63 932.179C1429.1 932.504 1429.73 932.797 1430.53 933.058C1431.35 933.318 1432.37 933.57 1433.61 933.814C1435.24 934.156 1436.69 934.555 1437.98 935.011C1439.26 935.45 1440.35 935.979 1441.23 936.598C1442.1 937.232 1442.77 937.965 1443.23 938.795C1443.7 939.625 1443.94 940.585 1443.94 941.676C1443.94 942.848 1443.67 943.914 1443.13 944.874C1442.61 945.834 1441.88 946.656 1440.93 947.34C1439.99 948.023 1438.86 948.552 1437.54 948.927C1436.22 949.301 1434.78 949.488 1433.22 949.488C1431.43 949.488 1429.83 949.252 1428.43 948.78C1427.03 948.292 1425.85 947.649 1424.89 946.852C1423.92 946.07 1423.17 945.159 1422.65 944.117C1422.14 943.076 1421.89 941.993 1421.89 940.87L1426.41 940.87C1426.47 941.798 1426.72 942.579 1427.14 943.214C1427.58 943.849 1428.12 944.361 1428.77 944.752C1429.41 945.143 1430.12 945.419 1430.9 945.582C1431.68 945.745 1432.45 945.826 1433.22 945.826C1434.42 945.826 1435.47 945.688 1436.37 945.411C1437.26 945.118 1437.96 944.719 1438.47 944.215C1438.78 943.906 1439.01 943.564 1439.17 943.189C1439.34 942.815 1439.42 942.416 1439.42 941.993ZM1451.87 959.156L1451.87 922.584L1456 922.584L1456.22 925.465C1456.57 925.009 1456.96 924.602 1457.39 924.244C1457.81 923.87 1458.27 923.552 1458.75 923.292C1459.44 922.901 1460.2 922.608 1461.03 922.413C1461.87 922.201 1462.78 922.096 1463.74 922.096C1465.43 922.096 1466.93 922.429 1468.23 923.097C1469.53 923.764 1470.62 924.692 1471.5 925.88C1472.38 927.068 1473.05 928.492 1473.5 930.152C1473.96 931.796 1474.18 933.603 1474.18 935.572L1474.18 936.085C1474.18 937.973 1473.96 939.739 1473.5 941.383C1473.05 943.01 1472.38 944.426 1471.5 945.631C1470.62 946.835 1469.53 947.779 1468.23 948.463C1466.94 949.146 1465.47 949.488 1463.81 949.488C1462.8 949.488 1461.86 949.382 1460.98 949.171C1460.11 948.959 1459.33 948.658 1458.63 948.268C1458.21 948.023 1457.81 947.755 1457.44 947.462C1457.06 947.153 1456.71 946.819 1456.39 946.461L1456.39 959.156L1451.87 959.156ZM1469.67 935.572C1469.67 934.286 1469.52 933.066 1469.23 931.91C1468.95 930.738 1468.52 929.705 1467.93 928.81C1467.33 927.931 1466.58 927.231 1465.66 926.71C1464.75 926.189 1463.66 925.929 1462.39 925.929C1461.69 925.929 1461.04 926.01 1460.44 926.173C1459.85 926.336 1459.32 926.572 1458.85 926.881C1458.33 927.19 1457.87 927.573 1457.46 928.028C1457.05 928.484 1456.7 928.989 1456.39 929.542L1456.39 942.262C1456.66 942.75 1456.98 943.206 1457.34 943.629C1457.7 944.052 1458.1 944.41 1458.56 944.703C1459.08 945.045 1459.66 945.313 1460.29 945.509C1460.94 945.704 1461.66 945.802 1462.44 945.802C1463.69 945.802 1464.78 945.541 1465.69 945.021C1466.6 944.483 1467.35 943.767 1467.93 942.872C1468.52 941.977 1468.95 940.943 1469.23 939.771C1469.52 938.6 1469.67 937.371 1469.67 936.085L1469.67 935.572ZM1493.59 949.488C1491.74 949.488 1490.03 949.171 1488.47 948.536C1486.92 947.901 1485.59 947.014 1484.49 945.875C1483.38 944.736 1482.52 943.385 1481.9 941.822C1481.28 940.26 1480.97 938.559 1480.97 936.72L1480.97 935.694C1480.97 933.562 1481.31 931.658 1482 929.981C1482.68 928.289 1483.59 926.856 1484.73 925.685C1485.85 924.529 1487.13 923.642 1488.56 923.023C1490.01 922.405 1491.49 922.096 1493.01 922.096C1494.91 922.096 1496.57 922.429 1497.99 923.097C1499.42 923.748 1500.61 924.651 1501.55 925.807C1502.5 926.979 1503.2 928.354 1503.65 929.933C1504.12 931.511 1504.36 933.22 1504.36 935.06L1504.36 937.086L1485.49 937.086L1485.49 937.257C1485.6 938.543 1485.85 939.674 1486.25 940.65C1486.65 941.627 1487.21 942.49 1487.91 943.238C1488.62 944.036 1489.48 944.662 1490.49 945.118C1491.5 945.574 1492.62 945.802 1493.84 945.802C1495.45 945.802 1496.88 945.476 1498.13 944.825C1499.39 944.174 1500.43 943.312 1501.26 942.237L1504.02 944.386C1503.14 945.72 1501.82 946.909 1500.06 947.95C1498.32 948.976 1496.17 949.488 1493.59 949.488ZM1493.01 925.807C1492.1 925.807 1491.23 925.978 1490.42 926.319C1489.61 926.645 1488.87 927.125 1488.22 927.76C1487.57 928.411 1487.02 929.208 1486.56 930.152C1486.12 931.08 1485.81 932.154 1485.63 933.375L1499.84 933.375L1499.84 933.155C1499.84 932.341 1499.69 931.471 1499.38 930.543C1499.07 929.599 1498.64 928.785 1498.09 928.102C1497.53 927.418 1496.83 926.865 1495.99 926.441C1495.16 926.018 1494.16 925.807 1493.01 925.807ZM1523.21 945.826C1524.02 945.826 1524.81 945.696 1525.58 945.436C1526.36 945.175 1527.05 944.809 1527.65 944.337C1528.25 943.881 1528.73 943.344 1529.09 942.726C1529.47 942.091 1529.66 941.407 1529.68 940.675L1533.95 940.675C1533.93 941.847 1533.62 942.97 1533.02 944.044C1532.44 945.102 1531.65 946.03 1530.65 946.827C1529.66 947.641 1528.52 948.292 1527.24 948.78C1525.95 949.252 1524.61 949.488 1523.21 949.488C1521.21 949.488 1519.46 949.13 1517.96 948.414C1516.46 947.698 1515.22 946.729 1514.22 945.509C1513.21 944.304 1512.46 942.913 1511.95 941.334C1511.45 939.739 1511.2 938.063 1511.2 936.305L1511.2 935.279C1511.2 933.538 1511.45 931.869 1511.95 930.274C1512.46 928.679 1513.21 927.271 1514.22 926.051C1515.22 924.846 1516.46 923.886 1517.96 923.17C1519.46 922.454 1521.21 922.096 1523.21 922.096C1524.77 922.096 1526.2 922.348 1527.5 922.853C1528.82 923.341 1529.96 924.008 1530.92 924.854C1531.87 925.717 1532.61 926.734 1533.14 927.906C1533.68 929.078 1533.95 930.331 1533.95 931.666L1529.68 931.666C1529.66 930.868 1529.48 930.12 1529.14 929.42C1528.82 928.704 1528.37 928.077 1527.8 927.54C1527.23 927.003 1526.54 926.58 1525.75 926.271C1524.97 925.961 1524.12 925.807 1523.21 925.807C1521.81 925.807 1520.63 926.091 1519.67 926.661C1518.72 927.215 1517.96 927.939 1517.37 928.834C1516.79 929.745 1516.36 930.763 1516.1 931.886C1515.86 933.009 1515.74 934.14 1515.74 935.279L1515.74 936.305C1515.74 937.46 1515.86 938.608 1516.1 939.747C1516.36 940.87 1516.79 941.879 1517.37 942.774C1517.94 943.686 1518.7 944.426 1519.64 944.996C1520.6 945.549 1521.79 945.826 1523.21 945.826ZM1552.68 916.188L1552.68 922.584L1562.73 922.584L1562.73 926.075L1552.68 926.075L1552.68 940.431C1552.68 941.456 1552.81 942.302 1553.07 942.97C1553.33 943.637 1553.68 944.166 1554.14 944.557C1554.6 944.964 1555.12 945.248 1555.7 945.411C1556.31 945.574 1556.94 945.655 1557.61 945.655C1558.1 945.655 1558.6 945.631 1559.12 945.582C1559.64 945.517 1560.15 945.444 1560.66 945.362C1561.15 945.281 1561.6 945.2 1562.03 945.118C1562.47 945.021 1562.82 944.939 1563.1 944.874L1563.74 948.072C1563.36 948.3 1562.91 948.504 1562.37 948.683C1561.83 948.845 1561.25 948.984 1560.61 949.098C1559.98 949.228 1559.3 949.326 1558.58 949.391C1557.88 949.456 1557.18 949.488 1556.48 949.488C1555.31 949.488 1554.21 949.326 1553.19 949C1552.18 948.658 1551.3 948.121 1550.55 947.389C1549.8 946.673 1549.21 945.745 1548.77 944.605C1548.35 943.45 1548.13 942.058 1548.13 940.431L1548.13 926.075L1541.2 926.075L1541.2 922.584L1548.13 922.584L1548.13 916.188L1552.68 916.188ZM1570.74 935.548C1570.74 933.644 1571.02 931.878 1571.57 930.25C1572.13 928.606 1572.92 927.182 1573.96 925.978C1574.99 924.773 1576.24 923.829 1577.72 923.146C1579.21 922.446 1580.87 922.096 1582.73 922.096C1584.6 922.096 1586.28 922.446 1587.76 923.146C1589.26 923.829 1590.53 924.773 1591.57 925.978C1592.59 927.182 1593.38 928.606 1593.94 930.25C1594.49 931.878 1594.77 933.644 1594.77 935.548L1594.77 936.085C1594.77 937.989 1594.49 939.755 1593.94 941.383C1593.38 943.01 1592.59 944.426 1591.57 945.631C1590.53 946.835 1589.26 947.779 1587.78 948.463C1586.3 949.146 1584.63 949.488 1582.78 949.488C1580.91 949.488 1579.22 949.146 1577.72 948.463C1576.24 947.779 1574.99 946.835 1573.96 945.631C1572.92 944.426 1572.13 943.01 1571.57 941.383C1571.02 939.755 1570.74 937.989 1570.74 936.085L1570.74 935.548ZM1575.26 936.085C1575.26 937.387 1575.41 938.632 1575.72 939.82C1576.03 940.992 1576.5 942.026 1577.14 942.921C1577.76 943.816 1578.54 944.524 1579.48 945.045C1580.43 945.566 1581.53 945.826 1582.78 945.826C1584.02 945.826 1585.1 945.566 1586.03 945.045C1586.97 944.524 1587.76 943.816 1588.39 942.921C1589.01 942.026 1589.48 940.992 1589.79 939.82C1590.09 938.632 1590.25 937.387 1590.25 936.085L1590.25 935.548C1590.25 934.262 1590.09 933.033 1589.76 931.861C1589.45 930.673 1588.99 929.632 1588.37 928.736C1587.73 927.841 1586.94 927.133 1586 926.612C1585.07 926.075 1583.98 925.807 1582.73 925.807C1581.48 925.807 1580.39 926.075 1579.46 926.612C1578.53 927.133 1577.76 927.841 1577.14 928.736C1576.5 929.632 1576.03 930.673 1575.72 931.861C1575.41 933.033 1575.26 934.262 1575.26 935.548L1575.26 936.085ZM1619.35 922.096C1620.18 922.096 1621.04 922.153 1621.94 922.267C1622.85 922.381 1623.53 922.535 1623.99 922.73L1623.38 927.149C1622.5 926.954 1621.66 926.816 1620.86 926.734C1620.08 926.637 1619.26 926.588 1618.4 926.588C1617.29 926.588 1616.29 926.726 1615.4 927.003C1614.5 927.263 1613.72 927.654 1613.05 928.175C1612.45 928.631 1611.92 929.192 1611.46 929.859C1611.03 930.51 1610.66 931.243 1610.37 932.057L1610.37 949L1605.83 949L1605.83 922.584L1610.12 922.584L1610.32 926.124L1610.34 926.783C1611.42 925.335 1612.7 924.195 1614.2 923.365C1615.71 922.519 1617.43 922.096 1619.35 922.096Z" fill="#FFC312" fill-opacity="0.866667"/>
</g>
<defs>
<clipPath id="clip0_2153_293">
<rect width="2600" height="1024" fill="white"/>
</clipPath>
</defs>
</svg>
